<svg width="286" height="51" viewBox="0 0 286 51" fill="none" xmlns="http://www.w3.org/2000/svg">
<g clip-path="url(#clip0_3_2)">
<path d="M17.2874 0.0335693H30.6627V9.93914H16.419C13.8481 9.93914 11.8987 10.7288 10.5708 12.3081C8.76228 13.8899 7.37835 16.9426 6.41893 21.4664C6.22496 22.764 6.11837 24.0937 6.10112 25.4308C6.10112 29.2719 6.9628 32.8839 8.68619 36.2667C9.81421 38.0827 10.8736 39.2846 11.8644 39.8726C12.9507 40.692 14.442 41.1019 16.3385 41.1019H30.6627V51.0037H17.0099C13.5198 51.0037 10.9348 50.2962 9.25467 48.8812C5.49905 46.1412 2.80878 41.6574 1.18388 35.4298C0.390733 32.287 -0.0120604 28.9083 -0.000107789 25.4981C-0.000107789 17.9105 1.80086 11.4337 5.40281 6.06808C7.76034 3.08134 9.89256 1.31769 11.7995 0.77714C12.7753 0.283917 14.6047 0.0360603 17.2874 0.0335693ZM14.7023 20.6182H30.6627V30.4153H14.7023V20.6182Z" fill="white"/>
<path d="M50.6428 23.6373V31.0133H35.1548V23.6373H50.6428Z" fill="white"/>
<path d="M51.9431 0.0709229H68.9352C75.0916 0.0709229 79.3643 4.56224 81.7531 13.5449C82.3394 16.1197 82.6338 18.854 82.6215 21.6083C82.6215 27.5869 81.2234 32.8179 78.4272 37.3019C76.7038 39.8476 74.5917 41.5689 72.091 42.4656C71.1228 42.6934 70.1457 42.7997 69.1679 42.7833L58.0667 42.9963V50.9887H51.9005V32.9262H68.6867C70.8772 32.9262 72.4805 32.2425 73.4966 30.875C74.7962 29.4849 75.7287 27.243 76.2943 24.1491C76.3924 23.4402 76.4486 22.7167 76.4621 21.9895V20.9246C76.4621 18.2591 75.7773 15.666 74.4075 13.1451C72.9811 11.0501 71.3994 10.0014 69.6626 9.99891H51.9431V0.0709229Z" fill="white"/>
<path d="M85.7952 0.0709229H91.9389V24.1566C91.9389 30.8998 93.4855 35.8035 96.5786 38.8674C97.935 40.362 99.7359 41.1093 101.981 41.1093H116.514V51.0112H102.189C98.3102 51.0112 95.2096 49.6547 92.8879 46.9421C92.2418 46.394 91.2705 45.07 89.9739 42.9702C88.2937 39.8116 87.1567 36.6292 86.5628 33.4233C86.0556 30.9945 85.8011 27.5158 85.7997 22.9872L85.7952 0.0709229Z" fill="white"/>
<path d="M136.304 0H150.404V51H144.287V9.93919L138.822 9.97281H137.508C134.457 9.97281 132.761 10.1858 132.422 10.6118C130.575 11.4632 128.948 13.3166 127.799 15.8803C126.443 19.1185 125.764 22.337 125.764 25.5355C125.764 29.4962 126.682 33.1393 128.52 36.4648C129.749 38.4229 130.809 39.601 131.697 39.9996C132.593 40.747 134.125 41.1206 136.294 41.1206H140.548V50.9888H135.454C131.668 50.9888 128.469 49.326 125.856 46.0005C123.964 43.5095 122.701 41.2464 122.065 39.2112C120.482 35.0163 119.691 30.7256 119.692 26.3388V24.8443C119.692 18.7163 121.069 13.0928 123.823 7.97377C125.489 5.27848 126.852 3.57587 127.91 2.86593C128.915 2.00027 129.974 1.32356 131.068 0.848195C132.268 0.282732 134.014 0 136.304 0Z" fill="white"/>
<path d="M165.939 51V42.6524C163.479 41.5539 161.179 39.6276 159.18 36.9916C157.5 34.4707 156.405 32.372 155.897 30.6957C155.19 28.8008 154.641 26.7544 154.265 24.6125C153.817 22.256 153.594 19.0488 153.594 14.9909V0.0709229H159.738V15.4542C159.738 19.9381 160.26 23.3931 161.304 25.8194C161.514 26.5966 162.192 27.8346 163.336 29.5335C164.918 31.7055 166.903 32.8929 168.95 32.8929C170.999 32.8929 172.984 31.7055 174.566 29.5335C175.71 27.8322 176.388 26.5941 176.6 25.8194C177.645 23.3906 178.166 19.9357 178.166 15.4542V0.0709229H184.31V14.9946C184.31 19.0525 184.086 22.2598 183.638 24.6163C183.276 26.7663 182.727 28.8158 182.007 30.6994C181.499 32.3732 180.412 34.472 178.746 36.9953C176.738 39.6249 174.432 41.5491 171.966 42.6524V51H165.939Z" fill="white"/>
<path d="M204.769 0.0335693H218.138V9.93912H203.896C201.327 9.93912 199.378 10.7288 198.05 12.3081C196.242 13.8899 194.858 16.9426 193.898 21.4664C193.705 22.764 193.598 24.0937 193.581 25.4308C193.581 29.2719 194.441 32.8839 196.163 36.2667C197.293 38.0827 198.353 39.2846 199.341 39.8726C200.43 40.6971 201.921 41.1105 203.818 41.1131H218.142V51.0149H204.489C201.003 51.0149 198.418 50.3074 196.736 48.8925C192.98 46.1524 190.289 41.6685 188.665 35.441C187.87 32.2967 187.467 28.9149 187.479 25.5018C187.479 17.9142 189.28 11.4375 192.88 6.07181C195.242 3.08258 197.376 1.31769 199.284 0.77714C200.258 0.283917 202.087 0.0360603 204.769 0.0335693ZM202.186 20.6182H218.138V30.4153H202.186V20.6182Z" fill="white"/>
<path d="M221.378 0.0335693H240.996C244.463 0.0335693 247.175 1.76608 249.131 5.23109C249.889 6.3384 250.509 7.68434 250.954 9.19182C251.68 11.4991 252.071 14.0588 252.097 16.6649V18.1146C252.097 21.8512 251.127 25.4943 249.187 29.0441C247.945 31.0369 246.815 32.3098 245.799 32.8628C248.369 37.4413 249.653 43.4895 249.653 51.0074H243.49V50.2302C243.49 44.6652 242.141 40.2437 239.443 36.9654C237.903 35.1495 235.889 34.2415 233.4 34.2415H221.378V24.4033H241.376C243.566 24.4033 245.048 22.5998 245.826 18.9927C245.911 18.2454 245.967 17.6477 245.996 17.1543C245.996 15.1491 245.495 13.3332 244.492 11.7065C243.718 10.6281 242.745 10.0288 241.737 10.0101C241.737 9.91671 241.441 9.86813 240.842 9.86813H221.37L221.378 0.0335693Z" fill="white"/>
<path d="M264.978 0.0709301H285.547V10.5332H264.785C263.163 10.5332 262.168 11.8647 261.799 14.5276V15.2749C261.799 16.8542 262.33 18.1745 263.388 19.2356C263.712 19.4478 264.057 19.5556 264.405 19.5532H274.845C277.532 19.5532 279.353 20.0129 280.312 20.9321C282.686 22.7031 284.327 25.4034 285.235 29.0329C285.727 31.1176 285.986 33.3351 285.999 35.5755C285.999 40.6672 284.572 44.958 281.719 48.4479C280.814 49.3856 279.828 50.0899 278.796 50.5365C277.977 50.843 276.614 50.9962 274.707 50.9962H255.303L255.28 40.5339H276.126C277.878 40.5339 278.997 39.0954 279.483 36.2181L279.526 35.2654C279.526 33.2351 278.929 31.6783 277.736 30.5947C277.227 30.1886 276.667 29.9949 276.104 30.0305H264.389C261.325 30.0305 258.768 27.7885 256.721 23.3047C255.866 21.0482 255.402 18.4414 255.379 15.7719V14.3893C255.379 9.15819 256.904 5.02059 259.955 1.97656C261.213 0.703651 262.887 0.0684391 264.978 0.0709301Z" fill="white"/>
</g>
<defs>
<clipPath id="clip0_3_2">
<rect width="285.992" height="51" fill="white"/>
</clipPath>
</defs>
</svg>
